<?xml version="1.0" encoding="UTF-8"?>
<!DOCTYPE svg PUBLIC "-//W3C//DTD SVG 1.1//EN" "http://www.w3.org/Graphics/SVG/1.1/DTD/svg11.dtd">
<!-- Creator: CorelDRAW 2017 -->
<svg xmlns="http://www.w3.org/2000/svg" xml:space="preserve" width="180mm" height="180mm" version="1.1" style="shape-rendering:geometricPrecision; text-rendering:geometricPrecision; image-rendering:optimizeQuality; fill-rule:evenodd; clip-rule:evenodd"
viewBox="0 0 1287.4 1287.4"
 xmlns:xlink="http://www.w3.org/1999/xlink">
 <defs>
  <style type="text/css">
   <![CDATA[
    .fil256 {fill:#FEFEFE}
    .fil117 {fill:#E63F24}
    .fil118 {fill:#E63D24}
    .fil119 {fill:#E63C24}
    .fil120 {fill:#E53A24}
    .fil121 {fill:#E53824}
    .fil122 {fill:#E53724}
    .fil123 {fill:#E53624}
    .fil106 {fill:#E85123}
    .fil107 {fill:#E84F23}
    .fil108 {fill:#E74D24}
    .fil109 {fill:#E74D24}
    .fil110 {fill:#E74B24}
    .fil111 {fill:#E74924}
    .fil112 {fill:#E64724}
    .fil113 {fill:#E64624}
    .fil114 {fill:#E64424}
    .fil115 {fill:#E64224}
    .fil116 {fill:#E64024}
    .fil124 {fill:#E53625}
    .fil95 {fill:#EA6323}
    .fil96 {fill:#EA6223}
    .fil97 {fill:#E96022}
    .fil98 {fill:#E95E23}
    .fil99 {fill:#E95C23}
    .fil100 {fill:#E95B23}
    .fil101 {fill:#E85923}
    .fil102 {fill:#E85824}
    .fil103 {fill:#E85624}
    .fil104 {fill:#E85524}
    .fil105 {fill:#E75323}
    .fil125 {fill:#E43626}
    .fil84 {fill:#EC7422}
    .fil85 {fill:#EB7222}
    .fil86 {fill:#EB7022}
    .fil87 {fill:#EB6F22}
    .fil88 {fill:#EB6E22}
    .fil89 {fill:#EB6C23}
    .fil90 {fill:#EA6A22}
    .fil91 {fill:#EA6922}
    .fil92 {fill:#EA6823}
    .fil93 {fill:#EA6623}
    .fil94 {fill:#E96423}
    .fil127 {fill:#E43628}
    .fil126 {fill:#E43627}
    .fil73 {fill:#ED8322}
    .fil74 {fill:#ED8322}
    .fil75 {fill:#ED8121}
    .fil76 {fill:#ED7F21}
    .fil77 {fill:#ED7E21}
    .fil78 {fill:#EC7D21}
    .fil79 {fill:#EC7B21}
    .fil80 {fill:#EC7922}
    .fil81 {fill:#EC7822}
    .fil82 {fill:#EC7722}
    .fil83 {fill:#EB7522}
    .fil128 {fill:#E33629}
    .fil62 {fill:#F09320}
    .fil63 {fill:#EF9220}
    .fil64 {fill:#EF9020}
    .fil65 {fill:#EF8F20}
    .fil66 {fill:#EF8E21}
    .fil67 {fill:#EE8C21}
    .fil68 {fill:#EE8A20}
    .fil69 {fill:#EE8A20}
    .fil70 {fill:#EE8821}
    .fil71 {fill:#ED8621}
    .fil72 {fill:#ED8522}
    .fil129 {fill:#E3362A}
    .fil52 {fill:#F2A21F}
    .fil53 {fill:#F2A01F}
    .fil54 {fill:#F19F1E}
    .fil55 {fill:#F19D1F}
    .fil56 {fill:#F19C1F}
    .fil57 {fill:#F09A1F}
    .fil58 {fill:#F09820}
    .fil59 {fill:#F09720}
    .fil60 {fill:#F0951F}
    .fil61 {fill:#EF951F}
    .fil131 {fill:#E2372B}
    .fil130 {fill:#E2372B}
    .fil43 {fill:#F4B01C}
    .fil44 {fill:#F4AE1D}
    .fil45 {fill:#F3AC1D}
    .fil46 {fill:#F3AB1E}
    .fil47 {fill:#F2A91D}
    .fil48 {fill:#F2A81D}
    .fil49 {fill:#F2A61D}
    .fil50 {fill:#F2A51E}
    .fil51 {fill:#F1A31F}
    .fil132 {fill:#E1372C}
    .fil33 {fill:#F6BE19}
    .fil34 {fill:#F6BD1A}
    .fil35 {fill:#F5BB19}
    .fil36 {fill:#F5BA1A}
    .fil37 {fill:#F5B91A}
    .fil38 {fill:#F4B71B}
    .fil39 {fill:#F4B61B}
    .fil40 {fill:#F4B41B}
    .fil41 {fill:#F4B31A}
    .fil42 {fill:#F3B11B}
    .fil133 {fill:#E1372D}
    .fil24 {fill:#F8CB17}
    .fil25 {fill:#F7C918}
    .fil26 {fill:#F7C818}
    .fil27 {fill:#F7C718}
    .fil28 {fill:#F7C519}
    .fil29 {fill:#F6C417}
    .fil30 {fill:#F6C317}
    .fil31 {fill:#F6C118}
    .fil32 {fill:#F6C018}
    .fil134 {fill:#E0372E}
    .fil15 {fill:#F9D715}
    .fil16 {fill:#F9D615}
    .fil17 {fill:#F9D415}
    .fil18 {fill:#F8D316}
    .fil19 {fill:#F8D216}
    .fil20 {fill:#F8D017}
    .fil21 {fill:#F7CE17}
    .fil22 {fill:#F7CD16}
    .fil23 {fill:#F7CC17}
    .fil136 {fill:#E03730}
    .fil135 {fill:#E0372F}
    .fil2 {fill:#FAE40D}
    .fil1 {fill:#F9E30F}
    .fil0 {fill:#F9E110}
    .fil8 {fill:#F9E011}
    .fil9 {fill:#F9DE11}
    .fil10 {fill:#F9DD10}
    .fil11 {fill:#F9DC11}
    .fil12 {fill:#F8DA12}
    .fil13 {fill:#F8D913}
    .fil14 {fill:#F8D814}
    .fil137 {fill:#DF3730}
    .fil7 {fill:#FAEA0A}
    .fil6 {fill:#FAE90C}
    .fil5 {fill:#FAE70D}
    .fil4 {fill:#FAE60E}
    .fil3 {fill:#F9E50D}
    .fil138 {fill:#DF3731}
    .fil140 {fill:#DE3733}
    .fil139 {fill:#DE3732}
    .fil141 {fill:#DE3734}
    .fil142 {fill:#DD3735}
    .fil144 {fill:#DD3837}
    .fil143 {fill:#DD3836}
    .fil145 {fill:#DC3837}
    .fil146 {fill:#DC3838}
    .fil148 {fill:#DB383A}
    .fil147 {fill:#DB3839}
    .fil149 {fill:#DA383B}
    .fil150 {fill:#DA383C}
    .fil152 {fill:#D9383E}
    .fil151 {fill:#D9383D}
    .fil153 {fill:#D9383F}
    .fil154 {fill:#D83840}
    .fil156 {fill:#D83841}
    .fil155 {fill:#D83840}
    .fil157 {fill:#D73842}
    .fil158 {fill:#D73943}
    .fil160 {fill:#D63944}
    .fil159 {fill:#D63944}
    .fil161 {fill:#D53945}
    .fil162 {fill:#D53946}
    .fil164 {fill:#D43948}
    .fil163 {fill:#D43947}
    .fil165 {fill:#D43949}
    .fil166 {fill:#D3394A}
    .fil168 {fill:#D3394B}
    .fil167 {fill:#D3394B}
    .fil169 {fill:#D2394C}
    .fil170 {fill:#D2394D}
    .fil172 {fill:#D1394F}
    .fil171 {fill:#D1394E}
    .fil173 {fill:#D03950}
    .fil174 {fill:#D03950}
    .fil176 {fill:#CF3952}
    .fil175 {fill:#CF3951}
    .fil177 {fill:#CF3A53}
    .fil178 {fill:#CE3A54}
    .fil180 {fill:#CE3A56}
    .fil179 {fill:#CE3A55}
    .fil181 {fill:#CD3A56}
    .fil182 {fill:#CC3A57}
    .fil184 {fill:#CC3A59}
    .fil183 {fill:#CC3A58}
    .fil185 {fill:#CB3A59}
    .fil186 {fill:#CB3A5A}
    .fil188 {fill:#CA3A5C}
    .fil187 {fill:#CA3A5B}
    .fil189 {fill:#C93A5D}
    .fil190 {fill:#C93A5D}
    .fil192 {fill:#C83A5F}
    .fil191 {fill:#C83A5E}
    .fil193 {fill:#C83A60}
    .fil194 {fill:#C73A61}
    .fil195 {fill:#C63A61}
    .fil197 {fill:#C63A63}
    .fil196 {fill:#C63A62}
    .fil198 {fill:#C53A63}
    .fil199 {fill:#C53A64}
    .fil201 {fill:#C43A66}
    .fil200 {fill:#C43A65}
    .fil202 {fill:#C33A67}
    .fil203 {fill:#C33A67}
    .fil205 {fill:#C23A69}
    .fil204 {fill:#C23A68}
    .fil206 {fill:#C23A6A}
    .fil207 {fill:#C13A6B}
    .fil209 {fill:#C03A6C}
    .fil208 {fill:#C03A6B}
    .fil210 {fill:#C03A6D}
    .fil211 {fill:#BF3A6D}
    .fil213 {fill:#BF3A6F}
    .fil212 {fill:#BF3A6E}
    .fil214 {fill:#BE3A70}
    .fil215 {fill:#BD3A70}
    .fil217 {fill:#BD3A72}
    .fil216 {fill:#BD3A71}
    .fil218 {fill:#BC3A73}
    .fil219 {fill:#BB3A73}
    .fil221 {fill:#BB3A75}
    .fil220 {fill:#BB3A74}
    .fil222 {fill:#BA3A76}
    .fil223 {fill:#BA3A76}
    .fil225 {fill:#B93A78}
    .fil224 {fill:#B93A77}
    .fil226 {fill:#B83A78}
    .fil227 {fill:#B83A79}
    .fil229 {fill:#B73A7A}
    .fil228 {fill:#B73A7A}
    .fil230 {fill:#B63A7B}
    .fil231 {fill:#B63A7C}
    .fil233 {fill:#B5397D}
    .fil232 {fill:#B53A7D}
    .fil234 {fill:#B4397E}
    .fil235 {fill:#B4397F}
    .fil237 {fill:#B33980}
    .fil236 {fill:#B3397F}
    .fil238 {fill:#B23980}
    .fil239 {fill:#B23981}
    .fil241 {fill:#B13982}
    .fil240 {fill:#B13982}
    .fil242 {fill:#B03983}
    .fil243 {fill:#B03984}
    .fil245 {fill:#AF3985}
    .fil244 {fill:#AF3984}
    .fil246 {fill:#AE3986}
    .fil247 {fill:#AE3986}
    .fil249 {fill:#AD3987}
    .fil248 {fill:#AD3987}
    .fil250 {fill:#AC3988}
    .fil251 {fill:#AC3989}
    .fil253 {fill:#AB398A}
    .fil252 {fill:#AB3989}
    .fil254 {fill:#AA398A}
    .fil255 {fill:#AA398B}
   ]]>
  </style>
     <clipPath id="id0">
      <path d="M357.61 0l572.18 0c196.97,0 357.61,160.65 357.61,357.61l0 572.18c0,196.97 -160.65,357.61 -357.61,357.61l-572.18 0c-196.97,0 -357.61,-160.65 -357.61,-357.61l0 -572.18c0,-196.97 160.65,-357.61 357.61,-357.61z"/>
     </clipPath>
 </defs>
 <g id="Слой_x0020_1">
  <metadata id="CorelCorpID_0Corel-Layer"/>
  <g id="_2226540857792">
   <g>
    <g style="clip-path:url(#id0)">
     <polygon class="fil0" points="-487.54,686.85 -486.85,686.11 687.53,1774.2 686.85,1774.94 "/>
     <polygon id="1" class="fil1" points="-488.87,688.29 -482.82,681.75 691.57,1769.85 685.51,1776.38 "/>
     <polygon id="2" class="fil2" points="-484.83,683.93 -478.78,677.4 695.6,1765.49 689.55,1772.02 "/>
     <polygon id="3" class="fil3" points="-480.8,679.58 -474.75,673.05 699.63,1761.14 693.58,1767.67 "/>
     <polygon id="4" class="fil4" points="-476.77,675.22 -470.72,668.69 703.67,1756.78 697.62,1763.31 "/>
     <polygon id="5" class="fil5" points="-472.73,670.87 -466.68,664.34 707.7,1752.43 701.65,1758.96 "/>
     <polygon id="6" class="fil6" points="-468.7,666.52 -462.65,659.98 711.74,1748.08 705.69,1754.61 "/>
     <polygon id="7" class="fil7" points="-464.66,662.16 -458.61,655.63 715.77,1743.72 709.72,1750.25 "/>
     <polygon id="8" class="fil6" points="-460.63,657.81 -454.58,651.28 719.8,1739.37 713.75,1745.9 "/>
     <polygon id="9" class="fil5" points="-456.6,653.45 -450.55,646.92 723.84,1735.01 717.79,1741.54 "/>
     <polygon id="10" class="fil4" points="-452.56,649.1 -446.51,642.57 727.87,1730.66 721.82,1737.19 "/>
     <polygon id="11" class="fil3" points="-448.53,644.75 -442.48,638.21 731.91,1726.31 725.86,1732.84 "/>
     <polygon id="12" class="fil2" points="-444.49,640.39 -438.44,633.86 735.94,1721.95 729.89,1728.48 "/>
     <polygon id="13" class="fil1" points="-440.46,636.04 -434.41,629.51 739.98,1717.6 733.92,1724.13 "/>
     <polygon id="14" class="fil0" points="-436.43,631.68 -430.37,625.15 744.01,1713.24 737.96,1719.77 "/>
     <polygon id="15" class="fil8" points="-432.39,627.33 -426.34,620.8 748.04,1708.89 741.99,1715.42 "/>
     <polygon id="16" class="fil9" points="-428.36,622.98 -422.31,616.44 752.08,1704.54 746.03,1711.07 "/>
     <polygon id="17" class="fil10" points="-424.32,618.62 -418.27,612.09 756.11,1700.18 750.06,1706.71 "/>
     <polygon id="18" class="fil11" points="-420.29,614.27 -414.24,607.74 760.15,1695.83 754.09,1702.36 "/>
     <polygon id="19" class="fil12" points="-416.26,609.91 -410.2,603.38 764.18,1691.47 758.13,1698 "/>
     <polygon id="20" class="fil13" points="-412.22,605.56 -406.17,599.03 768.21,1687.12 762.16,1693.65 "/>
     <polygon id="21" class="fil14" points="-408.19,601.2 -402.14,594.67 772.25,1682.77 766.2,1689.3 "/>
     <polygon id="22" class="fil15" points="-404.15,596.85 -398.1,590.32 776.28,1678.41 770.23,1684.94 "/>
     <polygon id="23" class="fil16" points="-400.12,592.5 -394.07,585.97 780.32,1674.06 774.26,1680.59 "/>
     <polygon id="24" class="fil17" points="-396.09,588.14 -390.03,581.61 784.35,1669.7 778.3,1676.23 "/>
     <polygon id="25" class="fil18" points="-392.05,583.79 -386,577.26 788.38,1665.35 782.33,1671.88 "/>
     <polygon id="26" class="fil19" points="-388.02,579.43 -381.97,572.9 792.42,1660.99 786.37,1667.53 "/>
     <polygon id="27" class="fil20" points="-383.98,575.08 -377.93,568.55 796.45,1656.64 790.4,1663.17 "/>
     <polygon id="28" class="fil21" points="-379.95,570.73 -373.9,564.2 800.49,1652.29 794.44,1658.82 "/>
     <polygon id="29" class="fil22" points="-375.91,566.37 -369.86,559.84 804.52,1647.93 798.47,1654.46 "/>
     <polygon id="30" class="fil23" points="-371.88,562.02 -365.83,555.49 808.55,1643.58 802.5,1650.11 "/>
     <polygon id="31" class="fil24" points="-367.85,557.66 -361.8,551.13 812.59,1639.22 806.54,1645.76 "/>
     <polygon id="32" class="fil25" points="-363.81,553.31 -357.76,546.78 816.62,1634.87 810.57,1641.4 "/>
     <polygon id="33" class="fil26" points="-359.78,548.96 -353.73,542.43 820.66,1630.52 814.61,1637.05 "/>
     <polygon id="34" class="fil27" points="-355.74,544.6 -349.69,538.07 824.69,1626.16 818.64,1632.69 "/>
     <polygon id="35" class="fil28" points="-351.71,540.25 -345.66,533.72 828.73,1621.81 822.67,1628.34 "/>
     <polygon id="36" class="fil29" points="-347.68,535.89 -341.62,529.36 832.76,1617.45 826.71,1623.99 "/>
     <polygon id="37" class="fil30" points="-343.64,531.54 -337.59,525.01 836.79,1613.1 830.74,1619.63 "/>
     <polygon id="38" class="fil31" points="-339.61,527.19 -333.56,520.66 840.83,1608.75 834.78,1615.28 "/>
     <polygon id="39" class="fil32" points="-335.57,522.83 -329.52,516.3 844.86,1604.39 838.81,1610.92 "/>
     <polygon id="40" class="fil33" points="-331.54,518.48 -325.49,511.95 848.9,1600.04 842.84,1606.57 "/>
     <polygon id="41" class="fil34" points="-327.51,514.12 -321.45,507.59 852.93,1595.68 846.88,1602.22 "/>
     <polygon id="42" class="fil35" points="-323.47,509.77 -317.42,503.24 856.96,1591.33 850.91,1597.86 "/>
     <polygon id="43" class="fil36" points="-319.44,505.42 -313.39,498.89 861,1586.98 854.95,1593.51 "/>
     <polygon id="44" class="fil37" points="-315.4,501.06 -309.35,494.53 865.03,1582.62 858.98,1589.15 "/>
     <polygon id="45" class="fil38" points="-311.37,496.71 -305.32,490.18 869.07,1578.27 863.01,1584.8 "/>
     <polygon id="46" class="fil39" points="-307.33,492.35 -301.28,485.82 873.1,1573.92 867.05,1580.45 "/>
     <polygon id="47" class="fil40" points="-303.3,488 -297.25,481.47 877.13,1569.56 871.08,1576.09 "/>
     <polygon id="48" class="fil41" points="-299.27,483.65 -293.22,477.12 881.17,1565.21 875.12,1571.74 "/>
     <polygon id="49" class="fil42" points="-295.23,479.29 -289.18,472.76 885.2,1560.85 879.15,1567.38 "/>
     <polygon id="50" class="fil43" points="-291.2,474.94 -285.15,468.41 889.24,1556.5 883.19,1563.03 "/>
     <polygon id="51" class="fil44" points="-287.16,470.58 -281.11,464.05 893.27,1552.15 887.22,1558.68 "/>
     <polygon id="52" class="fil45" points="-283.13,466.23 -277.08,459.7 897.3,1547.79 891.25,1554.32 "/>
     <polygon id="53" class="fil46" points="-279.1,461.88 -273.05,455.35 901.34,1543.44 895.29,1549.97 "/>
     <polygon id="54" class="fil47" points="-275.06,457.52 -269.01,450.99 905.37,1539.08 899.32,1545.61 "/>
     <polygon id="55" class="fil48" points="-271.03,453.17 -264.98,446.64 909.41,1534.73 903.36,1541.26 "/>
     <polygon id="56" class="fil49" points="-266.99,448.81 -260.94,442.28 913.44,1530.37 907.39,1536.91 "/>
     <polygon id="57" class="fil50" points="-262.96,444.46 -256.91,437.93 917.48,1526.02 911.42,1532.55 "/>
     <polygon id="58" class="fil51" points="-258.93,440.11 -252.87,433.57 921.51,1521.67 915.46,1528.2 "/>
     <polygon id="59" class="fil52" points="-254.89,435.75 -248.84,429.22 925.54,1517.31 919.49,1523.84 "/>
     <polygon id="60" class="fil53" points="-250.86,431.4 -244.81,424.87 929.58,1512.96 923.53,1519.49 "/>
     <polygon id="61" class="fil54" points="-246.82,427.04 -240.77,420.51 933.61,1508.6 927.56,1515.14 "/>
     <polygon id="62" class="fil55" points="-242.79,422.69 -236.74,416.16 937.65,1504.25 931.59,1510.78 "/>
     <polygon id="63" class="fil56" points="-238.76,418.34 -232.7,411.8 941.68,1499.9 935.63,1506.43 "/>
     <polygon id="64" class="fil57" points="-234.72,413.98 -228.67,407.45 945.71,1495.54 939.66,1502.07 "/>
     <polygon id="65" class="fil58" points="-230.69,409.63 -224.64,403.1 949.75,1491.19 943.7,1497.72 "/>
     <polygon id="66" class="fil59" points="-226.65,405.27 -220.6,398.74 953.78,1486.83 947.73,1493.37 "/>
     <polygon id="67" class="fil60" points="-222.62,400.92 -216.57,394.39 957.82,1482.48 951.76,1489.01 "/>
     <polygon id="68" class="fil61" points="-218.58,396.57 -212.53,390.03 961.85,1478.13 955.8,1484.66 "/>
     <polygon id="69" class="fil62" points="-214.55,392.21 -208.5,385.68 965.88,1473.77 959.83,1480.3 "/>
     <polygon id="70" class="fil63" points="-210.52,387.86 -204.47,381.33 969.92,1469.42 963.87,1475.95 "/>
     <polygon id="71" class="fil64" points="-206.48,383.5 -200.43,376.97 973.95,1465.06 967.9,1471.6 "/>
     <polygon id="72" class="fil65" points="-202.45,379.15 -196.4,372.62 977.99,1460.71 971.94,1467.24 "/>
     <polygon id="73" class="fil66" points="-198.41,374.8 -192.36,368.26 982.02,1456.36 975.97,1462.89 "/>
     <polygon id="74" class="fil67" points="-194.38,370.44 -188.33,363.91 986.05,1452 980,1458.53 "/>
     <polygon id="75" class="fil68" points="-190.35,366.09 -184.3,359.56 990.09,1447.65 984.04,1454.18 "/>
     <polygon id="76" class="fil69" points="-186.31,361.73 -180.26,355.2 994.12,1443.29 988.07,1449.83 "/>
     <polygon id="77" class="fil70" points="-182.28,357.38 -176.23,350.85 998.16,1438.94 992.11,1445.47 "/>
     <polygon id="78" class="fil71" points="-178.24,353.03 -172.19,346.5 1002.19,1434.59 996.14,1441.12 "/>
     <polygon id="79" class="fil72" points="-174.21,348.67 -168.16,342.14 1006.22,1430.23 1000.17,1436.76 "/>
     <polygon id="80" class="fil73" points="-170.18,344.32 -164.12,337.79 1010.26,1425.88 1004.21,1432.41 "/>
     <polygon id="81" class="fil74" points="-166.14,339.96 -160.09,333.43 1014.29,1421.52 1008.24,1428.06 "/>
     <polygon id="82" class="fil75" points="-162.11,335.61 -156.06,329.08 1018.33,1417.17 1012.28,1423.7 "/>
     <polygon id="83" class="fil76" points="-158.07,331.26 -152.02,324.73 1022.36,1412.82 1016.31,1419.35 "/>
     <polygon id="84" class="fil77" points="-154.04,326.9 -147.99,320.37 1026.4,1408.46 1020.34,1414.99 "/>
     <polygon id="85" class="fil78" points="-150.01,322.55 -143.95,316.02 1030.43,1404.11 1024.38,1410.64 "/>
     <polygon id="86" class="fil79" points="-145.97,318.19 -139.92,311.66 1034.46,1399.75 1028.41,1406.29 "/>
     <polygon id="87" class="fil80" points="-141.94,313.84 -135.89,307.31 1038.5,1395.4 1032.45,1401.93 "/>
     <polygon id="88" class="fil81" points="-137.9,309.49 -131.85,302.95 1042.53,1391.05 1036.48,1397.58 "/>
     <polygon id="89" class="fil82" points="-133.87,305.13 -127.82,298.6 1046.57,1386.69 1040.51,1393.22 "/>
     <polygon id="90" class="fil83" points="-129.83,300.78 -123.78,294.25 1050.6,1382.34 1044.55,1388.87 "/>
     <polygon id="91" class="fil84" points="-125.8,296.42 -119.75,289.89 1054.63,1377.98 1048.58,1384.52 "/>
     <polygon id="92" class="fil85" points="-121.77,292.07 -115.72,285.54 1058.67,1373.63 1052.62,1380.16 "/>
     <polygon id="93" class="fil86" points="-117.73,287.72 -111.68,281.18 1062.7,1369.28 1056.65,1375.81 "/>
     <polygon id="94" class="fil87" points="-113.7,283.36 -107.65,276.83 1066.74,1364.92 1060.68,1371.45 "/>
     <polygon id="95" class="fil88" points="-109.66,279.01 -103.61,272.48 1070.77,1360.57 1064.72,1367.1 "/>
     <polygon id="96" class="fil89" points="-105.63,274.65 -99.58,268.12 1074.8,1356.21 1068.75,1362.75 "/>
     <polygon id="97" class="fil90" points="-101.6,270.3 -95.54,263.77 1078.84,1351.86 1072.79,1358.39 "/>
     <polygon id="98" class="fil91" points="-97.56,265.95 -91.51,259.41 1082.87,1347.51 1076.82,1354.04 "/>
     <polygon id="99" class="fil92" points="-93.53,261.59 -87.48,255.06 1086.91,1343.15 1080.86,1349.68 "/>
     <polygon id="100" class="fil93" points="-89.49,257.24 -83.44,250.71 1090.94,1338.8 1084.89,1345.33 "/>
     <polygon id="101" class="fil94" points="-85.46,252.88 -79.41,246.35 1094.97,1334.44 1088.92,1340.97 "/>
     <polygon id="102" class="fil95" points="-81.43,248.53 -75.37,242 1099.01,1330.09 1092.96,1336.62 "/>
     <polygon id="103" class="fil96" points="-77.39,244.18 -71.34,237.64 1103.04,1325.74 1096.99,1332.27 "/>
     <polygon id="104" class="fil97" points="-73.36,239.82 -67.31,233.29 1107.08,1321.38 1101.03,1327.91 "/>
     <polygon id="105" class="fil98" points="-69.32,235.47 -63.27,228.94 1111.11,1317.03 1105.06,1323.56 "/>
     <polygon id="106" class="fil99" points="-65.29,231.11 -59.24,224.58 1115.15,1312.67 1109.09,1319.2 "/>
     <polygon id="107" class="fil100" points="-61.26,226.76 -55.2,220.23 1119.18,1308.32 1113.13,1314.85 "/>
     <polygon id="108" class="fil101" points="-57.22,222.41 -51.17,215.87 1123.21,1303.97 1117.16,1310.5 "/>
     <polygon id="109" class="fil102" points="-53.19,218.05 -47.14,211.52 1127.25,1299.61 1121.2,1306.14 "/>
     <polygon id="110" class="fil103" points="-49.15,213.7 -43.1,207.17 1131.28,1295.26 1125.23,1301.79 "/>
     <polygon id="111" class="fil104" points="-45.12,209.34 -39.07,202.81 1135.32,1290.9 1129.26,1297.43 "/>
     <polygon id="112" class="fil105" points="-41.08,204.99 -35.03,198.46 1139.35,1286.55 1133.3,1293.08 "/>
     <polygon id="113" class="fil106" points="-37.05,200.64 -31,194.1 1143.38,1282.2 1137.33,1288.73 "/>
     <polygon id="114" class="fil107" points="-33.02,196.28 -26.97,189.75 1147.42,1277.84 1141.37,1284.37 "/>
     <polygon id="115" class="fil108" points="-28.98,191.93 -22.93,185.4 1151.45,1273.49 1145.4,1280.02 "/>
     <polygon id="116" class="fil109" points="-24.95,187.57 -18.9,181.04 1155.49,1269.13 1149.43,1275.66 "/>
     <polygon id="117" class="fil110" points="-20.91,183.22 -14.86,176.69 1159.52,1264.78 1153.47,1271.31 "/>
     <polygon id="118" class="fil111" points="-16.88,178.87 -10.83,172.33 1163.55,1260.43 1157.5,1266.96 "/>
     <polygon id="119" class="fil112" points="-12.85,174.51 -6.79,167.98 1167.59,1256.07 1161.54,1262.6 "/>
     <polygon id="120" class="fil113" points="-8.81,170.16 -2.76,163.63 1171.62,1251.72 1165.57,1258.25 "/>
     <polygon id="121" class="fil114" points="-4.78,165.8 1.27,159.27 1175.66,1247.36 1169.61,1253.89 "/>
     <polygon id="122" class="fil115" points="-0.74,161.45 5.31,154.92 1179.69,1243.01 1173.64,1249.54 "/>
     <polygon id="123" class="fil116" points="3.29,157.1 9.34,150.56 1183.72,1238.66 1177.67,1245.19 "/>
     <polygon id="124" class="fil117" points="7.32,152.74 13.38,146.21 1187.76,1234.3 1181.71,1240.83 "/>
     <polygon id="125" class="fil118" points="11.36,148.39 17.41,141.86 1191.79,1229.95 1185.74,1236.48 "/>
     <polygon id="126" class="fil119" points="15.39,144.03 21.44,137.5 1195.83,1225.59 1189.78,1232.12 "/>
     <polygon id="127" class="fil120" points="19.43,139.68 25.48,133.15 1199.86,1221.24 1193.81,1227.77 "/>
     <polygon id="128" class="fil121" points="23.46,135.33 29.51,128.79 1203.9,1216.89 1197.84,1223.42 "/>
     <polygon id="129" class="fil122" points="27.49,130.97 33.55,124.44 1207.93,1212.53 1201.88,1219.06 "/>
     <polygon id="130" class="fil123" points="31.53,126.62 37.58,120.09 1211.96,1208.18 1205.91,1214.71 "/>
     <polygon id="131" class="fil124" points="35.56,122.26 41.61,115.73 1216,1203.82 1209.95,1210.35 "/>
     <polygon id="132" class="fil125" points="39.6,117.91 45.65,111.38 1220.03,1199.47 1213.98,1206 "/>
     <polygon id="133" class="fil126" points="43.63,113.55 49.68,107.02 1224.07,1195.12 1218.01,1201.65 "/>
     <polygon id="134" class="fil127" points="47.67,109.2 53.72,102.67 1228.1,1190.76 1222.05,1197.29 "/>
     <polygon id="135" class="fil128" points="51.7,104.85 57.75,98.32 1232.13,1186.41 1226.08,1192.94 "/>
     <polygon id="136" class="fil129" points="55.73,100.49 61.78,93.96 1236.17,1182.05 1230.12,1188.58 "/>
     <polygon id="137" class="fil130" points="59.77,96.14 65.82,89.61 1240.2,1177.7 1234.15,1184.23 "/>
     <polygon id="138" class="fil131" points="63.8,91.78 69.85,85.25 1244.24,1173.34 1238.18,1179.88 "/>
     <polygon id="139" class="fil132" points="67.84,87.43 73.89,80.9 1248.27,1168.99 1242.22,1175.52 "/>
     <polygon id="140" class="fil133" points="71.87,83.08 77.92,76.55 1252.3,1164.64 1246.25,1171.17 "/>
     <polygon id="141" class="fil134" points="75.9,78.72 81.96,72.19 1256.34,1160.28 1250.29,1166.81 "/>
     <polygon id="142" class="fil135" points="79.94,74.37 85.99,67.84 1260.37,1155.93 1254.32,1162.46 "/>
     <polygon id="143" class="fil136" points="83.97,70.01 90.02,63.48 1264.41,1151.57 1258.36,1158.11 "/>
     <polygon id="144" class="fil137" points="88.01,65.66 94.06,59.13 1268.44,1147.22 1262.39,1153.75 "/>
     <polygon id="145" class="fil138" points="92.04,61.31 98.09,54.78 1272.47,1142.87 1266.42,1149.4 "/>
     <polygon id="146" class="fil139" points="96.07,56.95 102.13,50.42 1276.51,1138.51 1270.46,1145.04 "/>
     <polygon id="147" class="fil140" points="100.11,52.6 106.16,46.07 1280.54,1134.16 1274.49,1140.69 "/>
     <polygon id="148" class="fil141" points="104.14,48.24 110.19,41.71 1284.58,1129.8 1278.53,1136.34 "/>
     <polygon id="149" class="fil142" points="108.18,43.89 114.23,37.36 1288.61,1125.45 1282.56,1131.98 "/>
     <polygon id="150" class="fil143" points="112.21,39.54 118.26,33.01 1292.65,1121.1 1286.59,1127.63 "/>
     <polygon id="151" class="fil144" points="116.24,35.18 122.3,28.65 1296.68,1116.74 1290.63,1123.27 "/>
     <polygon id="152" class="fil145" points="120.28,30.83 126.33,24.3 1300.71,1112.39 1294.66,1118.92 "/>
     <polygon id="153" class="fil146" points="124.31,26.47 130.36,19.94 1304.75,1108.03 1298.7,1114.57 "/>
     <polygon id="154" class="fil147" points="128.35,22.12 134.4,15.59 1308.78,1103.68 1302.73,1110.21 "/>
     <polygon id="155" class="fil148" points="132.38,17.77 138.43,11.24 1312.82,1099.33 1306.76,1105.86 "/>
     <polygon id="156" class="fil149" points="136.42,13.41 142.47,6.88 1316.85,1094.97 1310.8,1101.5 "/>
     <polygon id="157" class="fil150" points="140.45,9.06 146.5,2.53 1320.88,1090.62 1314.83,1097.15 "/>
     <polygon id="158" class="fil151" points="144.48,4.7 150.53,-1.83 1324.92,1086.26 1318.87,1092.8 "/>
     <polygon id="159" class="fil152" points="148.52,0.35 154.57,-6.18 1328.95,1081.91 1322.9,1088.44 "/>
     <polygon id="160" class="fil153" points="152.55,-4 158.6,-10.53 1332.99,1077.56 1326.93,1084.09 "/>
     <polygon id="161" class="fil154" points="156.59,-8.36 162.64,-14.89 1337.02,1073.2 1330.97,1079.73 "/>
     <polygon id="162" class="fil155" points="160.62,-12.71 166.67,-19.24 1341.05,1068.85 1335,1075.38 "/>
     <polygon id="163" class="fil156" points="164.65,-17.07 170.71,-23.6 1345.09,1064.49 1339.04,1071.03 "/>
     <polygon id="164" class="fil157" points="168.69,-21.42 174.74,-27.95 1349.12,1060.14 1343.07,1066.67 "/>
     <polygon id="165" class="fil158" points="172.72,-25.77 178.77,-32.3 1353.16,1055.79 1347.11,1062.32 "/>
     <polygon id="166" class="fil159" points="176.76,-30.13 182.81,-36.66 1357.19,1051.43 1351.14,1057.96 "/>
     <polygon id="167" class="fil160" points="180.79,-34.48 186.84,-41.01 1361.22,1047.08 1355.17,1053.61 "/>
     <polygon id="168" class="fil161" points="184.82,-38.84 190.88,-45.37 1365.26,1042.72 1359.21,1049.26 "/>
     <polygon id="169" class="fil162" points="188.86,-43.19 194.91,-49.72 1369.29,1038.37 1363.24,1044.9 "/>
     <polygon id="170" class="fil163" points="192.89,-47.54 198.94,-54.07 1373.33,1034.02 1367.28,1040.55 "/>
     <polygon id="171" class="fil164" points="196.93,-51.9 202.98,-58.43 1377.36,1029.66 1371.31,1036.19 "/>
     <polygon id="172" class="fil165" points="200.96,-56.25 207.01,-62.78 1381.4,1025.31 1375.34,1031.84 "/>
     <polygon id="173" class="fil166" points="205,-60.61 211.05,-67.14 1385.43,1020.95 1379.38,1027.49 "/>
     <polygon id="174" class="fil167" points="209.03,-64.96 215.08,-71.49 1389.46,1016.6 1383.41,1023.13 "/>
     <polygon id="175" class="fil168" points="213.06,-69.31 219.11,-75.85 1393.5,1012.25 1387.45,1018.78 "/>
     <polygon id="176" class="fil169" points="217.1,-73.67 223.15,-80.2 1397.53,1007.89 1391.48,1014.42 "/>
     <polygon id="177" class="fil170" points="221.13,-78.02 227.18,-84.55 1401.57,1003.54 1395.51,1010.07 "/>
     <polygon id="178" class="fil171" points="225.17,-82.38 231.22,-88.91 1405.6,999.18 1399.55,1005.72 "/>
     <polygon id="179" class="fil172" points="229.2,-86.73 235.25,-93.26 1409.63,994.83 1403.58,1001.36 "/>
     <polygon id="180" class="fil173" points="233.23,-91.08 239.28,-97.62 1413.67,990.48 1407.62,997.01 "/>
     <polygon id="181" class="fil174" points="237.27,-95.44 243.32,-101.97 1417.7,986.12 1411.65,992.65 "/>
     <polygon id="182" class="fil175" points="241.3,-99.79 247.35,-106.32 1421.74,981.77 1415.69,988.3 "/>
     <polygon id="183" class="fil176" points="245.34,-104.15 251.39,-110.68 1425.77,977.41 1419.72,983.95 "/>
     <polygon id="184" class="fil177" points="249.37,-108.5 255.42,-115.03 1429.8,973.06 1423.75,979.59 "/>
     <polygon id="185" class="fil178" points="253.4,-112.85 259.46,-119.39 1433.84,968.71 1427.79,975.24 "/>
     <polygon id="186" class="fil179" points="257.44,-117.21 263.49,-123.74 1437.87,964.35 1431.82,970.88 "/>
     <polygon id="187" class="fil180" points="261.47,-121.56 267.52,-128.09 1441.91,960 1435.86,966.53 "/>
     <polygon id="188" class="fil181" points="265.51,-125.92 271.56,-132.45 1445.94,955.64 1439.89,962.18 "/>
     <polygon id="189" class="fil182" points="269.54,-130.27 275.59,-136.8 1449.97,951.29 1443.92,957.82 "/>
     <polygon id="190" class="fil183" points="273.57,-134.62 279.63,-141.16 1454.01,946.94 1447.96,953.47 "/>
     <polygon id="191" class="fil184" points="277.61,-138.98 283.66,-145.51 1458.04,942.58 1451.99,949.11 "/>
     <polygon id="192" class="fil185" points="281.64,-143.33 287.69,-149.86 1462.08,938.23 1456.03,944.76 "/>
     <polygon id="193" class="fil186" points="285.68,-147.69 291.73,-154.22 1466.11,933.87 1460.06,940.41 "/>
     <polygon id="194" class="fil187" points="289.71,-152.04 295.76,-158.57 1470.15,929.52 1464.09,936.05 "/>
     <polygon id="195" class="fil188" points="293.75,-156.39 299.8,-162.93 1474.18,925.17 1468.13,931.7 "/>
     <polygon id="196" class="fil189" points="297.78,-160.75 303.83,-167.28 1478.21,920.81 1472.16,927.34 "/>
     <polygon id="197" class="fil190" points="301.81,-165.1 307.86,-171.63 1482.25,916.46 1476.2,922.99 "/>
     <polygon id="198" class="fil191" points="305.85,-169.46 311.9,-175.99 1486.28,912.1 1480.23,918.64 "/>
     <polygon id="199" class="fil192" points="309.88,-173.81 315.93,-180.34 1490.32,907.75 1484.26,914.28 "/>
     <polygon id="200" class="fil193" points="313.92,-178.16 319.97,-184.7 1494.35,903.4 1488.3,909.93 "/>
     <polygon id="201" class="fil194" points="317.95,-182.52 324,-189.05 1498.38,899.04 1492.33,905.57 "/>
     <polygon id="202" class="fil195" points="321.98,-186.87 328.03,-193.4 1502.42,894.69 1496.37,901.22 "/>
     <polygon id="203" class="fil196" points="326.02,-191.23 332.07,-197.76 1506.45,890.33 1500.4,896.87 "/>
     <polygon id="204" class="fil197" points="330.05,-195.58 336.1,-202.11 1510.49,885.98 1504.44,892.51 "/>
     <polygon id="205" class="fil198" points="334.09,-199.93 340.14,-206.47 1514.52,881.63 1508.47,888.16 "/>
     <polygon id="206" class="fil199" points="338.12,-204.29 344.17,-210.82 1518.55,877.27 1512.5,883.8 "/>
     <polygon id="207" class="fil200" points="342.15,-208.64 348.21,-215.17 1522.59,872.92 1516.54,879.45 "/>
     <polygon id="208" class="fil201" points="346.19,-213 352.24,-219.53 1526.62,868.56 1520.57,875.1 "/>
     <polygon id="209" class="fil202" points="350.22,-217.35 356.27,-223.88 1530.66,864.21 1524.61,870.74 "/>
     <polygon id="210" class="fil203" points="354.26,-221.7 360.31,-228.24 1534.69,859.86 1528.64,866.39 "/>
     <polygon id="211" class="fil204" points="358.29,-226.06 364.34,-232.59 1538.72,855.5 1532.67,862.03 "/>
     <polygon id="212" class="fil205" points="362.32,-230.41 368.38,-236.94 1542.76,851.15 1536.71,857.68 "/>
     <polygon id="213" class="fil206" points="366.36,-234.77 372.41,-241.3 1546.79,846.79 1540.74,853.32 "/>
     <polygon id="214" class="fil207" points="370.39,-239.12 376.44,-245.65 1550.83,842.44 1544.78,848.97 "/>
     <polygon id="215" class="fil208" points="374.43,-243.47 380.48,-250.01 1554.86,838.09 1548.81,844.62 "/>
     <polygon id="216" class="fil209" points="378.46,-247.83 384.51,-254.36 1558.9,833.73 1552.84,840.26 "/>
     <polygon id="217" class="fil210" points="382.5,-252.18 388.55,-258.71 1562.93,829.38 1556.88,835.91 "/>
     <polygon id="218" class="fil211" points="386.53,-256.54 392.58,-263.07 1566.96,825.02 1560.91,831.55 "/>
     <polygon id="219" class="fil212" points="390.56,-260.89 396.61,-267.42 1571,820.67 1564.95,827.2 "/>
     <polygon id="220" class="fil213" points="394.6,-265.24 400.65,-271.78 1575.03,816.32 1568.98,822.85 "/>
     <polygon id="221" class="fil214" points="398.63,-269.6 404.68,-276.13 1579.07,811.96 1573.01,818.49 "/>
     <polygon id="222" class="fil215" points="402.67,-273.95 408.72,-280.48 1583.1,807.61 1577.05,814.14 "/>
     <polygon id="223" class="fil216" points="406.7,-278.31 412.75,-284.84 1587.13,803.25 1581.08,809.78 "/>
     <polygon id="224" class="fil217" points="410.73,-282.66 416.78,-289.19 1591.17,798.9 1585.12,805.43 "/>
     <polygon id="225" class="fil218" points="414.77,-287.01 420.82,-293.55 1595.2,794.55 1589.15,801.08 "/>
     <polygon id="226" class="fil219" points="418.8,-291.37 424.85,-297.9 1599.24,790.19 1593.19,796.72 "/>
     <polygon id="227" class="fil220" points="422.84,-295.72 428.89,-302.25 1603.27,785.84 1597.22,792.37 "/>
     <polygon id="228" class="fil221" points="426.87,-300.08 432.92,-306.61 1607.3,781.48 1601.25,788.01 "/>
     <polygon id="229" class="fil222" points="430.9,-304.43 436.96,-310.96 1611.34,777.13 1605.29,783.66 "/>
     <polygon id="230" class="fil223" points="434.94,-308.78 440.99,-315.32 1615.37,772.78 1609.32,779.31 "/>
     <polygon id="231" class="fil224" points="438.97,-313.14 445.02,-319.67 1619.41,768.42 1613.36,774.95 "/>
     <polygon id="232" class="fil225" points="443.01,-317.49 449.06,-324.02 1623.44,764.07 1617.39,770.6 "/>
     <polygon id="233" class="fil226" points="447.04,-321.85 453.09,-328.38 1627.48,759.71 1621.42,766.24 "/>
     <polygon id="234" class="fil227" points="451.07,-326.2 457.13,-332.73 1631.51,755.36 1625.46,761.89 "/>
     <polygon id="235" class="fil228" points="455.11,-330.55 461.16,-337.09 1635.54,751.01 1629.49,757.54 "/>
     <polygon id="236" class="fil229" points="459.14,-334.91 465.19,-341.44 1639.58,746.65 1633.53,753.18 "/>
     <polygon id="237" class="fil230" points="463.18,-339.26 469.23,-345.79 1643.61,742.3 1637.56,748.83 "/>
     <polygon id="238" class="fil231" points="467.21,-343.62 473.26,-350.15 1647.65,737.94 1641.59,744.47 "/>
     <polygon id="239" class="fil232" points="471.24,-347.97 477.3,-354.5 1651.68,733.59 1645.63,740.12 "/>
     <polygon id="240" class="fil233" points="475.28,-352.32 481.33,-358.86 1655.71,729.24 1649.66,735.77 "/>
     <polygon id="241" class="fil234" points="479.31,-356.68 485.36,-363.21 1659.75,724.88 1653.7,731.41 "/>
     <polygon id="242" class="fil235" points="483.35,-361.03 489.4,-367.56 1663.78,720.53 1657.73,727.06 "/>
     <polygon id="243" class="fil236" points="487.38,-365.39 493.43,-371.92 1667.82,716.17 1661.76,722.7 "/>
     <polygon id="244" class="fil237" points="491.42,-369.74 497.47,-376.27 1671.85,711.82 1665.8,718.35 "/>
     <polygon id="245" class="fil238" points="495.45,-374.1 501.5,-380.63 1675.88,707.47 1669.83,714 "/>
     <polygon id="246" class="fil239" points="499.48,-378.45 505.53,-384.98 1679.92,703.11 1673.87,709.64 "/>
     <polygon id="247" class="fil240" points="503.52,-382.8 509.57,-389.33 1683.95,698.76 1677.9,705.29 "/>
     <polygon id="248" class="fil241" points="507.55,-387.16 513.6,-393.69 1687.99,694.4 1681.94,700.93 "/>
     <polygon id="249" class="fil242" points="511.59,-391.51 517.64,-398.04 1692.02,690.05 1685.97,696.58 "/>
     <polygon id="250" class="fil243" points="515.62,-395.87 521.67,-402.4 1696.05,685.7 1690,692.23 "/>
     <polygon id="251" class="fil244" points="519.65,-400.22 525.7,-406.75 1700.09,681.34 1694.04,687.87 "/>
     <polygon id="252" class="fil245" points="523.69,-404.57 529.74,-411.1 1704.12,676.99 1698.07,683.52 "/>
     <polygon id="253" class="fil246" points="527.72,-408.93 533.77,-415.46 1708.16,672.63 1702.11,679.16 "/>
     <polygon id="254" class="fil247" points="531.76,-413.28 537.81,-419.81 1712.19,668.28 1706.14,674.81 "/>
     <polygon id="255" class="fil248" points="535.79,-417.64 541.84,-424.17 1716.23,663.92 1710.17,670.46 "/>
     <polygon id="256" class="fil249" points="539.82,-421.99 545.88,-428.52 1720.26,659.57 1714.21,666.1 "/>
     <polygon id="257" class="fil250" points="543.86,-426.34 549.91,-432.87 1724.29,655.22 1718.24,661.75 "/>
     <polygon id="258" class="fil251" points="547.89,-430.7 553.94,-437.23 1728.33,650.86 1722.28,657.39 "/>
     <polygon id="259" class="fil252" points="551.93,-435.05 557.98,-441.58 1732.36,646.51 1726.31,653.04 "/>
     <polygon id="260" class="fil253" points="555.96,-439.41 562.01,-445.94 1736.4,642.15 1730.34,648.69 "/>
     <polygon id="261" class="fil254" points="559.99,-443.76 566.05,-450.29 1740.43,637.8 1734.38,644.33 "/>
     <polygon id="262" class="fil255" points="564.03,-448.11 570.08,-454.64 1744.46,633.45 1738.41,639.98 "/>
     <polygon id="263" class="fil254" points="568.06,-452.47 574.11,-459 1748.5,629.09 1742.45,635.62 "/>
     <polygon id="264" class="fil253" points="572.1,-456.82 578.15,-463.35 1752.53,624.74 1746.48,631.27 "/>
     <polygon id="265" class="fil252" points="576.13,-461.18 582.18,-467.71 1756.57,620.38 1750.51,626.92 "/>
     <polygon id="266" class="fil251" points="580.17,-465.53 586.22,-472.06 1760.6,616.03 1754.55,622.56 "/>
     <polygon id="267" class="fil250" points="584.2,-469.88 590.25,-476.41 1764.63,611.68 1758.58,618.21 "/>
     <polygon id="268" class="fil249" points="588.23,-474.24 594.28,-480.77 1768.67,607.32 1762.62,613.85 "/>
     <polygon id="269" class="fil248" points="592.27,-478.59 598.32,-485.12 1772.7,602.97 1766.65,609.5 "/>
     <polygon id="270" class="fil247" points="596.3,-482.95 602.35,-489.48 1776.74,598.61 1770.69,605.15 "/>
     <polygon id="271" class="fil246" points="600.34,-487.3 600.56,-487.54 1774.94,600.56 1774.72,600.79 "/>
    </g>
   </g>
   <path class="fil256" d="M357.61 143.04c-118.01,0 -214.57,96.56 -214.57,214.57l0 572.18c0,118.01 96.56,214.57 214.57,214.57l572.18 0c118.01,0 214.57,-96.56 214.57,-214.57l0 -572.18c0,-118.01 -96.56,-214.57 -214.57,-214.57l-572.18 0zm0 -71.52l572.18 0c157.48,0 286.09,128.61 286.09,286.09l0 572.18c0,157.48 -128.61,286.09 -286.09,286.09l-572.18 0c-157.48,0 -286.09,-128.61 -286.09,-286.09l0 -572.18c0,-157.48 128.61,-286.09 286.09,-286.09z"/>
   <path class="fil256" d="M998.36 619.93c-45.09,24.13 19.57,187.79 -177.94,175.27 -127.82,-8.1 -127.06,-98.64 -154.55,-150.72 -6.79,-12.87 -10.3,-16.67 -29.54,-15.68 -57.24,2.96 -14.26,158.9 -184.13,166.71 -47.5,2.18 -100.06,-4.78 -128.12,-46.31 -28.04,-41.51 -17.31,-111.72 -44.86,-129.65 2.35,38.86 -42.21,132.04 24.37,248.46l29.99 43.29 37.44 35.7c78.96,58.95 156.81,85.45 262.8,84.55 119.54,-1.01 225.52,-50.46 282,-110.75 75.87,-80.98 95.74,-159.55 82.54,-300.87zm-726.15 -61.04c16.58,0.31 65.6,-9.89 87.33,-12.39 173.29,-19.94 179.53,22.49 279.31,22.6 60.1,0.07 116.85,-25.39 179.32,-28.21 53.33,-2.41 139.87,7.95 189.31,19.25 16.29,-68.05 19.91,-156.96 16.85,-229.21 -1.67,-39.42 4.56,-86.7 -44.38,-62.57 -28.78,14.19 -56.72,28.74 -82.64,43.55 -50.28,28.71 -84.25,53.29 -127.36,87.04 -34.98,27.39 -18.84,18.32 -69.64,12.08 -60.84,-7.47 -113.23,-3.59 -172.49,9.09l-47.83 -43.82c-42.4,-38.58 -116.91,-82.4 -168.61,-111.52 -30.27,-17.05 -43.34,-10.44 -45.85,25.81 -5.43,78.46 -5.32,193.38 6.68,268.3zm540.43 2.87c-88.25,5.85 -138.34,20.92 -111.2,117.92 19.97,71.35 73.22,99.73 144.31,97.18 84.79,-3.03 107.36,-41.06 114.19,-126.52 7.31,-91.45 -63.61,-94.12 -147.3,-88.58zm-489.46 125.8c10.19,34.6 16.6,61.1 43.26,74.76 48.97,25.09 138.27,22.05 180.28,-26.48 24.76,-28.6 47.68,-92.39 31.58,-132.36 -5.67,-14.08 -16.44,-20.75 -33.53,-27.1 -29.02,-10.78 -69.26,-15.12 -102.68,-15.59 -129.08,-1.81 -133.51,33.53 -118.91,126.77z"/>
  </g>
 </g>
</svg>
