<?xml version="1.0" encoding="UTF-8"?>
<!DOCTYPE svg PUBLIC "-//W3C//DTD SVG 1.1//EN" "http://www.w3.org/Graphics/SVG/1.1/DTD/svg11.dtd">
<!-- Creator: CorelDRAW 2017 -->
<svg xmlns="http://www.w3.org/2000/svg" xml:space="preserve" width="205.8mm" height="204.078mm" version="1.1" style="shape-rendering:geometricPrecision; text-rendering:geometricPrecision; image-rendering:optimizeQuality; fill-rule:evenodd; clip-rule:evenodd"
viewBox="0 0 20580 20407.8"
 xmlns:xlink="http://www.w3.org/1999/xlink">
 <defs>
  <style type="text/css">
   <![CDATA[
    .fil0 {fill:#FEFEFE}
   ]]>
  </style>
 </defs>
 <g id="Слой_x0020_1">
  <metadata id="CorelCorpID_0Corel-Layer"/>
  <g id="_1986838147328">
   <path class="fil0" d="M2604 20407.8c-716.1,0 -1575,-489.3 -1963.5,-1108.8 -25.2,-42 -640.5,-1031.1 -640.5,-2169.3 0,-476.7 63,-955.5 193.2,-1423.8 455.7,-1648.5 1711.5,-3147.9 3549,-4227.3 172.2,218.4 359.1,426.3 577.5,640.5 -1740.9,966 -2925.3,2322.6 -3336.9,3822 -109.2,388.5 -159.6,787.5 -159.6,1188.6 0,867.3 501.9,1694.7 506.1,1703.1 235.2,380.1 842.1,720.3 1272.6,720.3l15199.8 -21c451.5,0 1079.4,-329.7 1348.2,-703.5 8.4,-8.4 598.5,-850.5 598.5,-1698.9 0,-310.8 -33.6,-623.7 -96.6,-930.3 -447.3,-2102.1 -2406.6,-3922.8 -5237.4,-4872l-67.2 -21 -54.6 46.2c-1121.4,991.2 -2545.2,1533 -4002.6,1533 -3412.5,0 -6195,-2889.6 -6195,-6442.8 0,-3553.2 2780.4,-6442.8 6199.2,-6442.8 3416.7,0 6199.2,2889.6 6199.2,6442.8 0,1461.6 -489.3,2895.9 -1373.4,4036.2l-100.8 130.2 155.4 58.8c1365,518.7 2566.2,1264.2 3467.1,2152.5 942.9,930.3 1575,2034.9 1820.7,3185.7 79.8,371.7 117.6,745.5 117.6,1117.2 0,1108.8 -686.7,2106.3 -762.3,2215.5 -417.9,585.9 -1302,1045.8 -2005.5,1045.8l-15208.2 23.1 0 0zm7686 -19553.1c-2963.1,0 -5371.8,2507.4 -5371.8,5583.9 0,3076.5 2406.6,5588.1 5371.8,5588.1 2967.3,0 5371.8,-2507.4 5371.8,-5583.9 0,-3076.5 -2408.7,-5588.1 -5371.8,-5588.1z"/>
  </g>
 </g>
</svg>
